<?xml version="1.0" encoding="UTF-8"?>
<!DOCTYPE svg PUBLIC "-//W3C//DTD SVG 1.1//EN" "http://www.w3.org/Graphics/SVG/1.1/DTD/svg11.dtd">
<svg xmlns="http://www.w3.org/2000/svg" version="1.1" width="150px" height="150px" style="shape-rendering:geometricPrecision; text-rendering:geometricPrecision; image-rendering:optimizeQuality; fill-rule:evenodd; clip-rule:evenodd" xmlns:xlink="http://www.w3.org/1999/xlink">
<g><path style="opacity:0.955" fill="#000000" d="M 38.5,30.5 C 39.2389,30.369 39.9056,30.5357 40.5,31C 51.6807,42.3476 63.014,53.5142 74.5,64.5C 85.986,53.5142 97.3193,42.3476 108.5,31C 112.114,32.5778 115.281,35.0778 118,38.5C 118.667,39.1667 118.667,39.8333 118,40.5C 106.652,51.6807 95.4858,63.014 84.5,74.5C 95.4858,85.986 106.652,97.3193 118,108.5C 116.422,112.114 113.922,115.281 110.5,118C 109.833,118.667 109.167,118.667 108.5,118C 97.3193,106.652 85.986,95.4858 74.5,84.5C 63.014,95.4858 51.6807,106.652 40.5,118C 36.8859,116.422 33.7193,113.922 31,110.5C 30.3333,109.833 30.3333,109.167 31,108.5C 42.3476,97.3193 53.5142,85.986 64.5,74.5C 53.5142,63.014 42.3476,51.6807 31,40.5C 30.3333,39.8333 30.3333,39.1667 31,38.5C 33.705,35.9638 36.205,33.2971 38.5,30.5 Z"/></g>
</svg>
